<?xml version="1.0" encoding="UTF-8"?>
<svg id="Lager_1" data-name="Lager 1" xmlns="http://www.w3.org/2000/svg" viewBox="0 0 265.07 61.26">
  <defs>
    <style>
      .cls-1 {
        fill: #fd0;
      }
    </style>
  </defs>
  <path class="cls-1" d="M244.65,10.66l-9.46-1.27c-2.05,.16-15.37,4.18-15.37,4.18l-3.42,16.03,5.02,18,21.97,4.66,10.53-8.57,1.66-21.52-10.93-11.51Zm1.68,21.87l-11.84,11.48-3.02-10.88-10.27-2.05,11.24-11.96,14.74,2.54-.85,10.87Z"/>
  <polygon class="cls-1" points="213.94 50.07 190.68 48.68 189.82 18.21 190.91 7.84 200.79 8.45 200.61 38.44 209.31 38.56 213.88 38.92 213.94 50.07"/>
  <polygon class="cls-1" points="187.13 40.43 186.8 51.62 162.13 51.48 162.37 9.76 173.04 9.83 173.38 40.84 187.13 40.43"/>
  <polygon class="cls-1" points="140.65 22.64 140.62 26.95 151.69 26.44 151.63 35.8 139.96 36.58 140.75 40.63 153.83 41.69 153.77 51.81 129.27 51.67 129.49 12.79 153.99 13.54 153.94 22.47 140.65 22.64"/>
  <path class="cls-1" d="M121.26,41.04l-1.91,9.83-6.71,1.39-15.55-1.16-6.07-8.32-.43-8.1-.15-8.46,2.35-7.26,5.26-6.42,10.27-1.61,6.27,.99,6.43,.88-.24,3.21-1.78,7.87-11.11-2.98-5.94,4.21-.83,10.44,4.67,5.49,4.54-1.05,.03-5.29c-1.64-.2-1.76-.22-1.81-.25-.19-.1,.02-4.49,.02-4.49l12.64,.93-.03,5.06,.08,5.09Z"/>
  <path class="cls-1" d="M81.53,23.19l-5.4-12.39s-14.37-.69-14.98-.89c-.6-.21-3.71,12.53-3.71,12.53l-4.42,28.33,11.34,.06,1.58-15.48,5.72,.04,2.21,16.31,12.15,1.08-4.49-29.59Zm-15.16,7.81l1.2-10.19,3.27-.43,.17,10.42-4.64,.2Z"/>
  <polygon class="cls-1" points="46.63 12.94 46.41 51.41 35.01 53.14 34.23 37.14 27.65 41.6 22.31 37.15 21.83 53.43 10.35 53.37 9.49 40.19 10.59 12.8 19.3 12.85 29.1 26.53 37.72 12.95 46.63 12.94"/>
</svg>